<svg width="128" height="128" viewBox="0 0 128 128" fill="none" xmlns="http://www.w3.org/2000/svg">
<rect width="128" height="128" fill="#00FFC2"/>
<path d="M33.0315 62.0648C28.6386 59.7804 26.4421 56.2441 26.4421 51.4558C26.4421 49.0836 27.0351 46.931 28.2212 44.9981C29.4513 43.0213 31.2743 41.4618 33.6905 40.3196C36.1505 39.1335 39.1377 38.5405 42.6521 38.5405C46.1665 38.5405 49.1317 39.1335 51.5479 40.3196C54.0079 41.4618 55.831 43.0213 57.0171 44.9981C58.2471 46.931 58.8621 49.0836 58.8621 51.4558C58.8621 53.8719 58.2691 56.0025 57.083 57.8475C55.8969 59.6486 54.3154 61.0544 52.3386 62.0648C54.7547 63.1191 56.6437 64.6566 58.0055 66.6774C59.3673 68.6981 60.0482 71.0923 60.0482 73.8599C60.0482 76.8471 59.2795 79.4609 57.7419 81.7013C56.2483 83.8978 54.1836 85.5891 51.5479 86.7752C48.9121 87.9613 45.9468 88.5543 42.6521 88.5543C39.3574 88.5543 36.3921 87.9613 33.7564 86.7752C31.1645 85.5891 29.0998 83.8978 27.5623 81.7013C26.0687 79.4609 25.3219 76.8471 25.3219 73.8599C25.3219 71.0923 26.0028 68.6981 27.3646 66.6774C28.7264 64.6127 30.6154 63.0751 33.0315 62.0648ZM49.9005 52.7736C49.9005 50.6211 49.2415 48.9518 47.9237 47.7657C46.6497 46.5796 44.8925 45.9865 42.6521 45.9865C40.4556 45.9865 38.6984 46.5796 37.3806 47.7657C36.1066 48.9518 35.4696 50.6431 35.4696 52.8395C35.4696 54.8164 36.1286 56.3978 37.4464 57.5839C38.8083 58.77 40.5435 59.3631 42.6521 59.3631C44.7607 59.3631 46.4959 58.77 47.8578 57.5839C49.2196 56.3539 49.9005 54.7505 49.9005 52.7736ZM42.6521 66.0843C40.1481 66.0843 38.1054 66.7213 36.5239 67.9953C34.9864 69.2692 34.2176 71.0923 34.2176 73.4645C34.2176 75.661 34.9644 77.4621 36.458 78.8678C37.9956 80.2296 40.0603 80.9106 42.6521 80.9106C45.244 80.9106 47.2867 80.2077 48.7803 78.8019C50.2739 77.3962 51.0207 75.617 51.0207 73.4645C51.0207 71.1362 50.2519 69.3351 48.7144 68.0611C47.1769 66.7433 45.1561 66.0843 42.6521 66.0843ZM67.3347 62.8555C67.3347 55.2557 68.6965 49.3032 71.4202 44.9981C74.1877 40.693 78.7564 38.5405 85.1262 38.5405C91.496 38.5405 96.0427 40.693 98.7663 44.9981C101.534 49.3032 102.918 55.2557 102.918 62.8555C102.918 70.4992 101.534 76.4956 98.7663 80.8447C96.0427 85.1937 91.496 87.3682 85.1262 87.3682C78.7564 87.3682 74.1877 85.1937 71.4202 80.8447C68.6965 76.4956 67.3347 70.4992 67.3347 62.8555ZM93.8243 62.8555C93.8243 59.6047 93.6046 56.8811 93.1653 54.6846C92.77 52.4442 91.9353 50.6211 90.6613 49.2153C89.4313 47.8096 87.5863 47.1067 85.1262 47.1067C82.6661 47.1067 80.7991 47.8096 79.5252 49.2153C78.2951 50.6211 77.4605 52.4442 77.0212 54.6846C76.6258 56.8811 76.4281 59.6047 76.4281 62.8555C76.4281 66.1941 76.6258 69.0056 77.0212 71.29C77.4166 73.5304 78.2512 75.3535 79.5252 76.7592C80.7991 78.121 82.6661 78.8019 85.1262 78.8019C87.5863 78.8019 89.4533 78.121 90.7272 76.7592C92.0012 75.3535 92.8358 73.5304 93.2312 71.29C93.6266 69.0056 93.8243 66.1941 93.8243 62.8555Z" fill="black"/>
</svg>
