<svg width="128" height="128" viewBox="0 0 128 128" fill="none" xmlns="http://www.w3.org/2000/svg">
<g clip-path="url(#clip0_656_16)">
<rect width="128" height="128" fill="#FDF5F0"/>
<path d="M58.3221 15.2302C82.7963 7.77831 79.874 36.2707 81.189 44.6723C81.9927 49.6402 83.9652 54.535 95.216 47.2293C111.435 36.7091 124.366 67.6853 108.805 78.2056C102.01 82.8082 98.2114 81.201 100.111 87.0456C102.01 92.8901 113.407 116.488 88.0564 118.314C69.3537 119.629 71.9107 94.1321 63.6553 96.1777C55.3998 98.2233 39.6925 116.78 24.9349 99.9036C11.2731 84.1963 32.0945 73.7491 26.6152 71.7766C15.2913 67.6853 4.4788 55.9231 19.6747 41.0925C31.9484 29.038 45.537 51.978 49.263 45.2568C53.7195 37.1474 42.1033 20.1981 58.3221 15.2302Z" fill="#FA9A90"/>
<path d="M65.1894 66.7356C65.1894 66.7356 64.1666 55.1925 65.4086 54.9003C67.8195 54.3159 67.9656 65.932 68.4039 65.5667C71.6915 63.1558 82.0657 57.8226 84.3304 61.1102C86.0108 63.5941 68.9153 70.3154 69.3537 70.4615C71.1071 71.046 82.2848 74.2605 81.1159 77.1097C79.7278 80.4704 68.3309 72.5071 68.55 74.0413C68.9884 76.6714 67.8195 106.625 59.3448 136.578C53.7194 156.596 44.3681 172.815 46.0484 168.212C47.6557 163.61 57.5184 130.003 59.564 120.36C63.8744 99.6844 65.8469 73.3838 64.3858 74.2605C62.8516 75.1372 53.208 84.0502 54.2308 80.2512C55.5459 75.3563 63.2169 71.9226 62.6324 70.8998C61.7557 69.2926 48.6054 63.0827 50.9432 60.4527C52.9889 57.8226 65.1894 66.7356 65.1894 66.7356Z" fill="#7A7A7A"/>
</g>
<defs>
<clipPath id="clip0_656_16">
<rect width="128" height="128" fill="white"/>
</clipPath>
</defs>
</svg>
