<svg width="100" height="100" viewBox="0 0 100 100" fill="none" xmlns="http://www.w3.org/2000/svg">
<path d="M0 50C0 8.825 8.825 0 50 0C91.175 0 100 8.825 100 50C100 91.175 91.175 100 50 100C8.825 100 0 91.175 0 50Z" fill="white"/>
<path d="M58.8805 47.4367C56.3309 42.4416 45.0012 8.07204 32.2581 20.8145C25.8401 27.2321 30.4475 40.298 33.0116 46.9344C35.1873 52.5654 57.0004 88.2132 62.8989 80.8402C69.831 72.175 74.8741 44.2625 69.6801 33.8744C62.1185 18.7513 56.7477 38.6503 61.1408 47.4367" stroke="#3D9CFB" stroke-width="6.49254" stroke-linecap="round"/>
</svg>
