<svg width="128" height="128" viewBox="0 0 128 128" fill="none" xmlns="http://www.w3.org/2000/svg">
<g clip-path="url(#clip0_656_24)">
<path d="M128 0H0V128H128V0Z" fill="#005FCC"/>
<path d="M83.5075 72.7932C87.8698 71.545 88.3676 71.0588 89.4715 66.9679C90.473 63.2561 92.0089 53.8665 91.6699 53.5276C91.5637 53.4213 89.3605 54.4481 86.774 55.8092C82.3784 58.1221 80.4885 58.7705 80.4921 57.9646C80.4929 57.7783 82.3726 55.6862 84.669 53.3155C86.9655 50.9448 89.5344 47.838 90.3779 46.4114L91.9114 43.8178L91.3636 39.8845C90.6191 34.5378 89.4637 29.4037 89.005 29.4037C88.7975 29.4037 87.0509 31.2958 85.1236 33.6085C83.1964 35.9211 77.5899 42.6226 72.6649 48.5007L63.7102 59.1882L66.5689 62.6951C68.1411 64.6239 71.0533 67.8792 73.0403 69.9291C76.5362 73.5356 76.7188 73.6551 78.6847 73.6239C79.8021 73.6063 81.9724 73.2324 83.5075 72.7932Z" fill="white"/>
<path d="M34.206 98.452C35.1994 98.2654 39.5683 97.4871 43.9145 96.7224C48.2607 95.9577 54.5599 94.8326 57.9127 94.2221C86.0826 89.0932 88.6893 88.7734 91.3033 90.1252C92.0103 90.4908 92.9787 91.3252 93.4553 91.9794L94.3218 93.1691L95.0783 92.0145C95.4944 91.3795 96.0761 89.9578 96.371 88.8553C96.8278 87.1473 96.7885 86.54 96.1053 84.7511C95.0463 81.9779 93.5405 80.2551 91.1747 79.1099C89.4862 78.2925 88.3951 78.1716 82.7061 78.1716C77.2549 78.1716 75.9914 78.0428 75.0594 77.3925C73.6216 76.3892 70.6211 73.1178 66.4555 68.0116C64.6321 65.7764 63.0244 63.846 62.8829 63.7218C62.7415 63.5977 61.3118 61.8704 59.706 59.8836C58.1001 57.8967 55.5665 54.8282 54.0757 53.0646C52.5849 51.301 48.0124 45.8279 43.9145 40.9022C34.4769 29.5579 34.1022 29.1311 33.8255 29.4078C33.4976 29.7357 31.8684 38.1581 31.5117 41.3698C31.2176 44.0174 31.2552 44.1461 33.16 47.0142C34.232 48.6286 36.917 51.829 39.1266 54.1262C42.5668 57.7029 42.9885 58.3018 42.0617 58.2935C41.4664 58.2883 38.863 57.1702 36.2764 55.8091C33.6899 54.448 31.483 53.425 31.3722 53.5358C30.9934 53.9147 33.0648 65.5157 33.9764 68.1205C34.477 69.5507 35.2363 70.9799 35.6638 71.2965C36.641 72.0201 41.6403 73.4759 44.506 73.8714C48.8881 74.476 45.8294 75.8337 39.9633 75.8878C38.1286 75.9047 37.1411 76.0982 37.1411 76.4408C37.1411 77.3239 40.2715 82.7236 42.0214 84.8593L43.6696 86.8706L37.6546 92.6288C34.3463 95.7959 31.8107 98.478 32.0197 98.5892C32.2288 98.7003 33.2126 98.6386 34.206 98.452Z" fill="white"/>
</g>
<defs>
<clipPath id="clip0_656_24">
<rect width="128" height="128" fill="white"/>
</clipPath>
</defs>
</svg>
